<mxfile host="65bd71144e">
    <diagram id="D0d9TCc8zK_jnnbvQLJB" name="ページ1">
        <mxGraphModel dx="688" dy="1199" grid="1" gridSize="10" guides="1" tooltips="1" connect="1" arrows="1" fold="1" page="1" pageScale="1" pageWidth="827" pageHeight="1169" math="0" shadow="0">
            <root>
                <mxCell id="0"/>
                <mxCell id="1" parent="0"/>
                <mxCell id="4" value="" style="rounded=1;whiteSpace=wrap;html=1;align=center;verticalAlign=top;fillColor=none;strokeColor=none;" parent="1" vertex="1">
                    <mxGeometry x="140" y="148.75" width="700" height="470" as="geometry"/>
                </mxCell>
                <mxCell id="9" value="&lt;font color=&quot;#000000&quot;&gt;Raspberry Pi Zero&lt;/font&gt;" style="rounded=1;whiteSpace=wrap;html=1;shadow=0;glass=0;sketch=0;strokeColor=none;fontSize=16;fillColor=#fad7ac;verticalAlign=top;" parent="1" vertex="1">
                    <mxGeometry x="230" y="290" width="210" height="160" as="geometry"/>
                </mxCell>
                <mxCell id="10" value="&lt;font color=&quot;#000000&quot;&gt;IFTTT&lt;/font&gt;" style="rounded=1;whiteSpace=wrap;html=1;shadow=0;glass=0;sketch=0;strokeColor=none;fontSize=16;fillColor=#fad7ac;verticalAlign=top;" parent="1" vertex="1">
                    <mxGeometry x="480" y="230" width="110" height="100" as="geometry"/>
                </mxCell>
                <mxCell id="11" value="&lt;font color=&quot;#000000&quot;&gt;Webhook&lt;/font&gt;" style="rounded=1;whiteSpace=wrap;html=1;shadow=0;glass=0;sketch=0;strokeColor=none;fontSize=16;fillColor=#b0e3e6;" parent="1" vertex="1">
                    <mxGeometry x="500" y="270" width="70" height="40" as="geometry"/>
                </mxCell>
                <mxCell id="13" value="&lt;font color=&quot;#000000&quot;&gt;Google Sheets&lt;/font&gt;" style="rounded=1;whiteSpace=wrap;html=1;shadow=0;glass=0;sketch=0;strokeColor=none;fontSize=16;fillColor=#fad7ac;" parent="1" vertex="1">
                    <mxGeometry x="635" y="260" width="180" height="60" as="geometry"/>
                </mxCell>
                <mxCell id="14" value="&lt;font color=&quot;#000000&quot;&gt;Discord&lt;/font&gt;" style="rounded=1;whiteSpace=wrap;html=1;shadow=0;glass=0;sketch=0;strokeColor=none;fontSize=16;fillColor=#fad7ac;verticalAlign=top;" parent="1" vertex="1">
                    <mxGeometry x="480" y="470" width="110" height="100" as="geometry"/>
                </mxCell>
                <mxCell id="16" value="&lt;font color=&quot;#000000&quot;&gt;crond&lt;br&gt;&lt;/font&gt;" style="rounded=1;whiteSpace=wrap;html=1;shadow=0;glass=0;sketch=0;strokeColor=none;fontSize=16;fillColor=#d0cee2;verticalAlign=top;" parent="1" vertex="1">
                    <mxGeometry x="255" y="326.25" width="160" height="115" as="geometry"/>
                </mxCell>
                <mxCell id="17" style="html=1;fontSize=16;fontColor=#000000;strokeColor=#ae4132;endArrow=none;endFill=0;fillColor=#fad9d5;entryX=0;entryY=0.5;entryDx=0;entryDy=0;exitX=1;exitY=0.5;exitDx=0;exitDy=0;" parent="1" target="11" edge="1" source="23">
                    <mxGeometry relative="1" as="geometry">
                        <mxPoint x="320" y="280" as="sourcePoint"/>
                    </mxGeometry>
                </mxCell>
                <mxCell id="18" style="html=1;fontSize=16;fontColor=#000000;strokeColor=#ae4132;endArrow=none;endFill=0;fillColor=#fad9d5;entryX=0;entryY=0.5;entryDx=0;entryDy=0;" parent="1" source="11" target="13" edge="1">
                    <mxGeometry relative="1" as="geometry">
                        <mxPoint x="370" y="302.6086956521739" as="sourcePoint"/>
                        <mxPoint x="530" y="210" as="targetPoint"/>
                    </mxGeometry>
                </mxCell>
                <mxCell id="20" style="html=1;fontSize=16;fontColor=#000000;strokeColor=#ae4132;endArrow=none;endFill=0;fillColor=#fad9d5;exitX=0;exitY=0.5;exitDx=0;exitDy=0;entryX=1;entryY=0.5;entryDx=0;entryDy=0;" parent="1" source="24" target="23" edge="1">
                    <mxGeometry relative="1" as="geometry">
                        <mxPoint x="250" y="302.6086956521739" as="sourcePoint"/>
                        <mxPoint x="330" y="240" as="targetPoint"/>
                    </mxGeometry>
                </mxCell>
                <mxCell id="22" value="&lt;font color=&quot;#000000&quot;&gt;BME280&lt;/font&gt;" style="rounded=1;whiteSpace=wrap;html=1;shadow=0;glass=0;sketch=0;strokeColor=none;fontSize=16;fillColor=#b0e3e6;" vertex="1" parent="1">
                    <mxGeometry x="170" y="370" width="70" height="35" as="geometry"/>
                </mxCell>
                <mxCell id="23" value="&lt;font color=&quot;#000000&quot;&gt;Python&lt;/font&gt;" style="rounded=1;whiteSpace=wrap;html=1;shadow=0;glass=0;sketch=0;strokeColor=none;fontSize=16;fillColor=#b0e3e6;" vertex="1" parent="1">
                    <mxGeometry x="300" y="370" width="70" height="35" as="geometry"/>
                </mxCell>
                <mxCell id="24" value="&lt;font color=&quot;#000000&quot;&gt;Webhook&lt;/font&gt;" style="rounded=1;whiteSpace=wrap;html=1;shadow=0;glass=0;sketch=0;strokeColor=none;fontSize=16;fillColor=#b0e3e6;" vertex="1" parent="1">
                    <mxGeometry x="500" y="510" width="70" height="35" as="geometry"/>
                </mxCell>
                <mxCell id="26" style="html=1;fontSize=16;fontColor=#000000;strokeColor=#ae4132;endArrow=none;endFill=0;fillColor=#fad9d5;exitX=0;exitY=0.5;exitDx=0;exitDy=0;entryX=1;entryY=0.5;entryDx=0;entryDy=0;" edge="1" parent="1" source="23" target="22">
                    <mxGeometry relative="1" as="geometry">
                        <mxPoint x="540" y="420" as="sourcePoint"/>
                        <mxPoint x="220" y="378" as="targetPoint"/>
                    </mxGeometry>
                </mxCell>
            </root>
        </mxGraphModel>
    </diagram>
</mxfile>
